<mxfile host="65bd71144e">
    <diagram id="VZMikjVpUB8KJSasa7bx" name="Page-1">
        <mxGraphModel dx="726" dy="611" grid="1" gridSize="10" guides="1" tooltips="1" connect="1" arrows="1" fold="1" page="1" pageScale="1" pageWidth="1100" pageHeight="850" math="0" shadow="0">
            <root>
                <mxCell id="0"/>
                <mxCell id="1" parent="0"/>
                <mxCell id="2" style="edgeStyle=orthogonalEdgeStyle;html=1;exitX=0;exitY=0.5;exitDx=0;exitDy=0;rounded=0;curved=0;entryX=1;entryY=0.5;entryDx=0;entryDy=0;strokeColor=#0000CC;dashed=1;" parent="1" edge="1">
                    <mxGeometry relative="1" as="geometry">
                        <mxPoint x="670" y="435" as="sourcePoint"/>
                        <mxPoint x="439" y="585" as="targetPoint"/>
                        <Array as="points">
                            <mxPoint x="636" y="435"/>
                            <mxPoint x="636" y="585"/>
                        </Array>
                    </mxGeometry>
                </mxCell>
                <mxCell id="3" style="edgeStyle=orthogonalEdgeStyle;rounded=0;orthogonalLoop=1;jettySize=auto;html=1;entryX=1;entryY=0.5;entryDx=0;entryDy=0;fontFamily=Helvetica;fontSize=12;fontColor=default;strokeColor=#0000CC;dashed=1;" parent="1" source="45" target="20" edge="1">
                    <mxGeometry relative="1" as="geometry">
                        <Array as="points">
                            <mxPoint x="636" y="435"/>
                            <mxPoint x="636" y="225"/>
                        </Array>
                    </mxGeometry>
                </mxCell>
                <mxCell id="4" value="ผู้ใช้" style="shape=umlActor;verticalLabelPosition=bottom;verticalAlign=top;html=1;outlineConnect=0;" parent="1" vertex="1">
                    <mxGeometry x="232" y="414" width="30" height="60" as="geometry"/>
                </mxCell>
                <mxCell id="5" value="ผู้ให้บริการภายนอก" style="shape=umlActor;verticalLabelPosition=bottom;verticalAlign=top;html=1;outlineConnect=0;" parent="1" vertex="1">
                    <mxGeometry x="838" y="275" width="30" height="60" as="geometry"/>
                </mxCell>
                <mxCell id="6" value="&lt;div&gt;ค้นหาการ์ด&lt;/div&gt;" style="ellipse;whiteSpace=wrap;html=1;fillColor=default;" parent="1" vertex="1">
                    <mxGeometry x="366" y="340" width="75" height="50" as="geometry"/>
                </mxCell>
                <mxCell id="7" value="เพิ่มการ์ด" style="ellipse;whiteSpace=wrap;html=1;fillColor=default;" parent="1" vertex="1">
                    <mxGeometry x="516" y="270" width="75" height="50" as="geometry"/>
                </mxCell>
                <mxCell id="8" value="สร้างเด็ค" style="ellipse;whiteSpace=wrap;html=1;fillColor=default;" parent="1" vertex="1">
                    <mxGeometry x="366" y="270" width="75" height="50" as="geometry"/>
                </mxCell>
                <mxCell id="57" style="html=1;entryX=0;entryY=0.5;entryDx=0;entryDy=0;endArrow=none;endFill=0;rounded=0;startArrow=block;startFill=1;exitX=1;exitY=0.5;exitDx=0;exitDy=0;strokeColor=#0000CC;dashed=1;" edge="1" parent="1" source="9" target="45">
                    <mxGeometry relative="1" as="geometry">
                        <mxPoint x="436.99999999999784" y="225" as="sourcePoint"/>
                        <mxPoint x="662" y="436" as="targetPoint"/>
                        <Array as="points">
                            <mxPoint x="636" y="225"/>
                            <mxPoint x="636" y="435"/>
                        </Array>
                    </mxGeometry>
                </mxCell>
                <mxCell id="9" value="เข้าสู่ระบบ" style="ellipse;whiteSpace=wrap;html=1;fillColor=default;" parent="1" vertex="1">
                    <mxGeometry x="366" y="200" width="75" height="50" as="geometry"/>
                </mxCell>
                <mxCell id="10" value="" style="endArrow=none;html=1;rounded=0;entryX=0;entryY=0.5;entryDx=0;entryDy=0;exitX=1;exitY=0.3333333333333333;exitDx=0;exitDy=0;exitPerimeter=0;" parent="1" source="4" target="9" edge="1">
                    <mxGeometry width="50" height="50" relative="1" as="geometry">
                        <mxPoint x="586" y="410" as="sourcePoint"/>
                        <mxPoint x="636" y="360" as="targetPoint"/>
                    </mxGeometry>
                </mxCell>
                <mxCell id="11" value="" style="endArrow=none;html=1;rounded=0;exitX=1;exitY=0.3333333333333333;exitDx=0;exitDy=0;exitPerimeter=0;entryX=0;entryY=0.5;entryDx=0;entryDy=0;" parent="1" source="4" target="8" edge="1">
                    <mxGeometry width="50" height="50" relative="1" as="geometry">
                        <mxPoint x="586" y="410" as="sourcePoint"/>
                        <mxPoint x="636" y="360" as="targetPoint"/>
                    </mxGeometry>
                </mxCell>
                <mxCell id="12" value="" style="endArrow=none;html=1;rounded=0;exitX=1;exitY=0.3333333333333333;exitDx=0;exitDy=0;exitPerimeter=0;entryX=0;entryY=0.5;entryDx=0;entryDy=0;" parent="1" source="4" target="33" edge="1">
                    <mxGeometry width="50" height="50" relative="1" as="geometry">
                        <mxPoint x="586" y="410" as="sourcePoint"/>
                        <mxPoint x="636" y="360" as="targetPoint"/>
                    </mxGeometry>
                </mxCell>
                <mxCell id="13" value="" style="endArrow=classic;dashed=1;html=1;rounded=0;entryX=1;entryY=0.5;entryDx=0;entryDy=0;exitX=0;exitY=0.5;exitDx=0;exitDy=0;" parent="1" source="29" target="6" edge="1">
                    <mxGeometry relative="1" as="geometry">
                        <mxPoint x="656" y="390" as="sourcePoint"/>
                        <mxPoint x="296" y="504.58000000000004" as="targetPoint"/>
                    </mxGeometry>
                </mxCell>
                <mxCell id="14" value="&lt;span style=&quot;color: rgb(0, 0, 0);&quot;&gt;extend&lt;/span&gt;&lt;div&gt;[ไม่มีการ์ดในเด็ค]&lt;/div&gt;" style="edgeLabel;resizable=0;html=1;;align=center;verticalAlign=middle;" parent="13" connectable="0" vertex="1">
                    <mxGeometry relative="1" as="geometry">
                        <mxPoint x="1" y="16" as="offset"/>
                    </mxGeometry>
                </mxCell>
                <mxCell id="15" value="" style="endArrow=none;html=1;rounded=0;entryX=0;entryY=0.5;entryDx=0;entryDy=0;exitX=1;exitY=0.5;exitDx=0;exitDy=0;" parent="1" source="8" target="7" edge="1">
                    <mxGeometry width="50" height="50" relative="1" as="geometry">
                        <mxPoint x="556" y="410" as="sourcePoint"/>
                        <mxPoint x="606" y="360" as="targetPoint"/>
                    </mxGeometry>
                </mxCell>
                <mxCell id="16" value="" style="endArrow=classic;dashed=1;html=1;rounded=0;entryX=0;entryY=1;entryDx=0;entryDy=0;exitX=1;exitY=0.5;exitDx=0;exitDy=0;" parent="1" source="8" target="20" edge="1">
                    <mxGeometry relative="1" as="geometry">
                        <mxPoint x="496" y="180" as="sourcePoint"/>
                        <mxPoint x="654.5" y="310" as="targetPoint"/>
                    </mxGeometry>
                </mxCell>
                <mxCell id="17" value="extend&lt;div&gt;[มีการ์ดในเด็ค]&lt;/div&gt;" style="edgeLabel;resizable=0;html=1;;align=center;verticalAlign=middle;" parent="16" connectable="0" vertex="1">
                    <mxGeometry relative="1" as="geometry">
                        <mxPoint x="-2" as="offset"/>
                    </mxGeometry>
                </mxCell>
                <mxCell id="18" value="" style="endArrow=none;html=1;rounded=0;entryX=1;entryY=0.3333333333333333;entryDx=0;entryDy=0;entryPerimeter=0;exitX=0;exitY=0.5;exitDx=0;exitDy=0;" parent="1" source="38" target="4" edge="1">
                    <mxGeometry width="50" height="50" relative="1" as="geometry">
                        <mxPoint x="586" y="410" as="sourcePoint"/>
                        <mxPoint x="636" y="360" as="targetPoint"/>
                    </mxGeometry>
                </mxCell>
                <mxCell id="19" value="" style="endArrow=none;html=1;rounded=0;exitX=1;exitY=0.3333333333333333;exitDx=0;exitDy=0;exitPerimeter=0;entryX=0;entryY=0.5;entryDx=0;entryDy=0;" parent="1" source="4" target="6" edge="1">
                    <mxGeometry width="50" height="50" relative="1" as="geometry">
                        <mxPoint x="586" y="410" as="sourcePoint"/>
                        <mxPoint x="636" y="360" as="targetPoint"/>
                    </mxGeometry>
                </mxCell>
                <mxCell id="20" value="บันทึก ลบ แก้ไข แชร์" style="ellipse;whiteSpace=wrap;html=1;fillColor=default;" parent="1" vertex="1">
                    <mxGeometry x="516" y="200" width="75" height="50" as="geometry"/>
                </mxCell>
                <mxCell id="21" value="" style="endArrow=none;html=1;rounded=0;entryX=1;entryY=0.3333333333333333;entryDx=0;entryDy=0;entryPerimeter=0;exitX=0;exitY=0.5;exitDx=0;exitDy=0;" parent="1" source="34" target="4" edge="1">
                    <mxGeometry width="50" height="50" relative="1" as="geometry">
                        <mxPoint x="586" y="430" as="sourcePoint"/>
                        <mxPoint x="636" y="380" as="targetPoint"/>
                    </mxGeometry>
                </mxCell>
                <mxCell id="22" value="" style="endArrow=none;html=1;rounded=0;exitX=1;exitY=0.5;exitDx=0;exitDy=0;entryX=0;entryY=1;entryDx=0;entryDy=0;endFill=0;" parent="1" source="6" target="7" edge="1">
                    <mxGeometry relative="1" as="geometry">
                        <mxPoint x="586" y="350" as="sourcePoint"/>
                        <mxPoint x="306" y="220" as="targetPoint"/>
                    </mxGeometry>
                </mxCell>
                <mxCell id="24" value=" ระบบจัดการแท็กและการ์ด" style="text;html=1;align=center;verticalAlign=middle;resizable=0;points=[];autosize=1;strokeColor=none;fillColor=none;fontFamily=Helvetica;fontSize=12;fontColor=default;" parent="1" vertex="1">
                    <mxGeometry x="476" y="164" width="150" height="30" as="geometry"/>
                </mxCell>
                <mxCell id="25" value="" style="endArrow=none;html=1;rounded=0;fontFamily=Helvetica;fontSize=12;fontColor=default;entryX=1;entryY=0.5;entryDx=0;entryDy=0;exitX=0;exitY=0.3333333333333333;exitDx=0;exitDy=0;exitPerimeter=0;" parent="1" source="5" target="30" edge="1">
                    <mxGeometry width="50" height="50" relative="1" as="geometry">
                        <mxPoint x="636" y="460" as="sourcePoint"/>
                        <mxPoint x="686" y="410" as="targetPoint"/>
                    </mxGeometry>
                </mxCell>
                <mxCell id="26" value="" style="swimlane;startSize=0;rounded=0;strokeColor=default;align=center;verticalAlign=middle;fontFamily=Helvetica;fontSize=12;fontColor=default;fillColor=default;" parent="1" vertex="1">
                    <mxGeometry x="347" y="160" width="409" height="530" as="geometry"/>
                </mxCell>
                <mxCell id="27" value="อ่านแท็ก" style="ellipse;whiteSpace=wrap;html=1;fillColor=default;" parent="26" vertex="1">
                    <mxGeometry x="167" y="250" width="75" height="50" as="geometry"/>
                </mxCell>
                <mxCell id="28" value="แสดง&lt;br&gt;&lt;div&gt;ประวัติการเล่น&lt;/div&gt;" style="ellipse;whiteSpace=wrap;html=1;fillColor=default;" parent="26" vertex="1">
                    <mxGeometry x="323" y="325" width="75" height="50" as="geometry"/>
                </mxCell>
                <mxCell id="29" value="เลือกเกม" style="ellipse;whiteSpace=wrap;html=1;fillColor=default;" parent="26" vertex="1">
                    <mxGeometry x="167" y="180" width="75" height="50" as="geometry"/>
                </mxCell>
                <mxCell id="30" value="โหลดการ์ดจาก API" style="ellipse;whiteSpace=wrap;html=1;fillColor=default;" parent="26" vertex="1">
                    <mxGeometry x="323" y="110" width="75" height="50" as="geometry"/>
                </mxCell>
                <mxCell id="31" value="" style="endArrow=classic;dashed=1;html=1;rounded=0;exitX=0;exitY=1;exitDx=0;exitDy=0;entryX=1;entryY=0.5;entryDx=0;entryDy=0;" parent="26" source="30" target="29" edge="1">
                    <mxGeometry relative="1" as="geometry">
                        <mxPoint x="477" y="220" as="sourcePoint"/>
                        <mxPoint x="477" y="160" as="targetPoint"/>
                    </mxGeometry>
                </mxCell>
                <mxCell id="32" value="extend&lt;div&gt;[ไม่มีการ์ดในระบบ]&lt;/div&gt;&lt;div&gt;[ต้องโหลดใหม่]&lt;/div&gt;" style="edgeLabel;resizable=0;html=1;;align=center;verticalAlign=middle;" parent="31" connectable="0" vertex="1">
                    <mxGeometry relative="1" as="geometry">
                        <mxPoint x="3" y="-2" as="offset"/>
                    </mxGeometry>
                </mxCell>
                <mxCell id="33" value="สร้างการ์ด" style="ellipse;whiteSpace=wrap;html=1;fillColor=default;" parent="26" vertex="1">
                    <mxGeometry x="17" y="400" width="75" height="50" as="geometry"/>
                </mxCell>
                <mxCell id="34" value="ติดตามการ์ด" style="ellipse;whiteSpace=wrap;html=1;fillColor=default;" parent="26" vertex="1">
                    <mxGeometry x="17" y="325" width="75" height="50" as="geometry"/>
                </mxCell>
                <mxCell id="35" value="" style="endArrow=classic;dashed=1;html=1;rounded=0;entryX=1;entryY=0.5;entryDx=0;entryDy=0;exitX=0;exitY=1;exitDx=0;exitDy=0;" parent="26" source="27" target="34" edge="1">
                    <mxGeometry relative="1" as="geometry">
                        <mxPoint x="87" y="455" as="sourcePoint"/>
                        <mxPoint x="167" y="455" as="targetPoint"/>
                    </mxGeometry>
                </mxCell>
                <mxCell id="36" value="include" style="edgeLabel;resizable=0;html=1;;align=center;verticalAlign=middle;" parent="35" connectable="0" vertex="1">
                    <mxGeometry relative="1" as="geometry">
                        <mxPoint x="-3" as="offset"/>
                    </mxGeometry>
                </mxCell>
                <mxCell id="37" value="" style="endArrow=none;html=1;rounded=0;entryX=1;entryY=0.5;entryDx=0;entryDy=0;exitX=0;exitY=0.5;exitDx=0;exitDy=0;" parent="26" source="52" target="34" edge="1">
                    <mxGeometry width="50" height="50" relative="1" as="geometry">
                        <mxPoint x="237" y="340" as="sourcePoint"/>
                        <mxPoint x="287" y="290" as="targetPoint"/>
                    </mxGeometry>
                </mxCell>
                <mxCell id="38" value="ตั้งค่าแอป" style="ellipse;whiteSpace=wrap;html=1;fillColor=default;" parent="26" vertex="1">
                    <mxGeometry x="17" y="470" width="75" height="50" as="geometry"/>
                </mxCell>
                <mxCell id="39" value="ตรวจสอบแท็ก" style="ellipse;whiteSpace=wrap;html=1;fillColor=default;" parent="26" vertex="1">
                    <mxGeometry x="17" y="250" width="75" height="50" as="geometry"/>
                </mxCell>
                <mxCell id="40" value="" style="endArrow=classic;dashed=1;html=1;rounded=0;entryX=1;entryY=0.5;entryDx=0;entryDy=0;exitX=0;exitY=0.5;exitDx=0;exitDy=0;" parent="26" source="27" target="39" edge="1">
                    <mxGeometry relative="1" as="geometry">
                        <mxPoint x="177" y="215" as="sourcePoint"/>
                        <mxPoint x="104" y="215" as="targetPoint"/>
                    </mxGeometry>
                </mxCell>
                <mxCell id="41" value="include" style="edgeLabel;resizable=0;html=1;;align=center;verticalAlign=middle;" parent="40" connectable="0" vertex="1">
                    <mxGeometry relative="1" as="geometry">
                        <mxPoint x="3" as="offset"/>
                    </mxGeometry>
                </mxCell>
                <mxCell id="42" value="บันทึก&lt;div&gt;ประวัติการเล่น&lt;/div&gt;" style="ellipse;whiteSpace=wrap;html=1;fillColor=default;" parent="26" vertex="1">
                    <mxGeometry x="167" y="325" width="75" height="50" as="geometry"/>
                </mxCell>
                <mxCell id="43" value="" style="endArrow=none;html=1;rounded=0;fontFamily=Helvetica;fontSize=12;fontColor=default;exitX=0;exitY=0.5;exitDx=0;exitDy=0;entryX=1;entryY=0.5;entryDx=0;entryDy=0;" parent="26" source="42" target="34" edge="1">
                    <mxGeometry width="50" height="50" relative="1" as="geometry">
                        <mxPoint x="289" y="300" as="sourcePoint"/>
                        <mxPoint x="339" y="250" as="targetPoint"/>
                    </mxGeometry>
                </mxCell>
                <mxCell id="44" style="edgeStyle=orthogonalEdgeStyle;rounded=0;orthogonalLoop=1;jettySize=auto;html=1;entryX=1;entryY=0.5;entryDx=0;entryDy=0;fontFamily=Helvetica;fontSize=12;fontColor=default;strokeColor=#0000CC;dashed=1;" parent="26" source="45" target="42" edge="1">
                    <mxGeometry relative="1" as="geometry">
                        <Array as="points">
                            <mxPoint x="289" y="275"/>
                            <mxPoint x="289" y="350"/>
                        </Array>
                    </mxGeometry>
                </mxCell>
                <mxCell id="45" value="sync&amp;nbsp;&lt;span style=&quot;background-color: transparent; color: light-dark(rgb(0, 0, 0), rgb(255, 255, 255));&quot;&gt;ข้อมูล&lt;/span&gt;&lt;div&gt;&lt;span style=&quot;background-color: transparent; color: light-dark(rgb(0, 0, 0), rgb(255, 255, 255));&quot;&gt;กับ firebase&lt;/span&gt;&lt;/div&gt;" style="ellipse;whiteSpace=wrap;html=1;fillColor=default;" parent="26" vertex="1">
                    <mxGeometry x="323" y="250" width="75" height="50" as="geometry"/>
                </mxCell>
                <mxCell id="46" value="เขียนแท็ก" style="ellipse;whiteSpace=wrap;html=1;fillColor=default;" parent="26" vertex="1">
                    <mxGeometry x="323" y="40" width="75" height="50" as="geometry"/>
                </mxCell>
                <mxCell id="47" value="สร้างห้อง&lt;div&gt;เล่นการ์ด&lt;/div&gt;" style="ellipse;whiteSpace=wrap;html=1;fillColor=default;" parent="26" vertex="1">
                    <mxGeometry x="167" y="470" width="75" height="50" as="geometry"/>
                </mxCell>
                <mxCell id="48" value="" style="endArrow=none;html=1;rounded=0;entryX=1;entryY=0.5;entryDx=0;entryDy=0;exitX=0;exitY=0.5;exitDx=0;exitDy=0;" parent="26" source="47" target="34" edge="1">
                    <mxGeometry width="50" height="50" relative="1" as="geometry">
                        <mxPoint x="237" y="65" as="sourcePoint"/>
                        <mxPoint x="287" y="15" as="targetPoint"/>
                    </mxGeometry>
                </mxCell>
                <mxCell id="49" value="" style="endArrow=classic;dashed=1;html=1;rounded=0;exitX=0;exitY=1;exitDx=0;exitDy=0;entryX=1;entryY=0.5;entryDx=0;entryDy=0;" parent="26" source="28" target="52" edge="1">
                    <mxGeometry relative="1" as="geometry">
                        <mxPoint x="344" y="163" as="sourcePoint"/>
                        <mxPoint x="252" y="215" as="targetPoint"/>
                    </mxGeometry>
                </mxCell>
                <mxCell id="50" value="extend&lt;div&gt;[มีประวัติการเล่น]&lt;/div&gt;" style="edgeLabel;resizable=0;html=1;;align=center;verticalAlign=middle;" parent="49" connectable="0" vertex="1">
                    <mxGeometry relative="1" as="geometry">
                        <mxPoint x="3" y="-1" as="offset"/>
                    </mxGeometry>
                </mxCell>
                <mxCell id="52" value="&lt;span style=&quot;background-color: transparent; color: light-dark(rgb(0, 0, 0), rgb(255, 255, 255));&quot;&gt;แสดงสถิติ&lt;/span&gt;&lt;div&gt;&lt;span style=&quot;background-color: transparent; color: light-dark(rgb(0, 0, 0), rgb(255, 255, 255));&quot;&gt;การเล่น&lt;/span&gt;&lt;/div&gt;" style="ellipse;whiteSpace=wrap;html=1;fillColor=default;" parent="26" vertex="1">
                    <mxGeometry x="167" y="400" width="75" height="50" as="geometry"/>
                </mxCell>
                <mxCell id="53" value="" style="endArrow=none;html=1;rounded=0;fontFamily=Helvetica;fontSize=12;fontColor=default;exitX=1;exitY=0.3333333333333333;exitDx=0;exitDy=0;exitPerimeter=0;entryX=0;entryY=0.5;entryDx=0;entryDy=0;" parent="1" source="4" target="39" edge="1">
                    <mxGeometry width="50" height="50" relative="1" as="geometry">
                        <mxPoint x="636" y="460" as="sourcePoint"/>
                        <mxPoint x="686" y="410" as="targetPoint"/>
                    </mxGeometry>
                </mxCell>
                <mxCell id="55" value="" style="endArrow=classic;dashed=1;html=1;rounded=0;entryX=1;entryY=0.5;entryDx=0;entryDy=0;exitX=0;exitY=1;exitDx=0;exitDy=0;" parent="1" source="46" target="7" edge="1">
                    <mxGeometry relative="1" as="geometry">
                        <mxPoint x="691" y="538" as="sourcePoint"/>
                        <mxPoint x="599" y="595" as="targetPoint"/>
                    </mxGeometry>
                </mxCell>
                <mxCell id="56" value="include" style="edgeLabel;resizable=0;html=1;;align=center;verticalAlign=middle;" parent="55" connectable="0" vertex="1">
                    <mxGeometry relative="1" as="geometry"/>
                </mxCell>
                <mxCell id="58" value="&lt;span style=&quot;font-size: 11px; background-color: rgb(255, 255, 255);&quot;&gt;&lt;font style=&quot;color: rgb(0, 0, 204);&quot;&gt;include&lt;/font&gt;&lt;/span&gt;" style="text;html=1;align=center;verticalAlign=middle;resizable=0;points=[];autosize=1;strokeColor=none;fillColor=none;fontFamily=Helvetica;fontSize=12;fontColor=default;" vertex="1" parent="1">
                    <mxGeometry x="607" y="419" width="60" height="30" as="geometry"/>
                </mxCell>
            </root>
        </mxGraphModel>
    </diagram>
</mxfile>